<svg width="163" height="194" viewBox="0 0 163 194" fill="none" xmlns="http://www.w3.org/2000/svg">
<g filter="url(#filter0_i_792_3)">
<path d="M59.0625 56.5938C59.0625 58.875 58.625 61.2188 57.75 63.625C56.875 66 55.8438 68.0469 54.6562 69.7656C53.7188 71.1406 52.5312 72.1719 51.0938 72.8594C49.6562 73.5469 48.0469 73.8906 46.2656 73.8906C44.4844 73.8906 42.5781 73.5625 40.5469 72.9062C38.7969 72.375 37.3125 71.2969 36.0938 69.6719C34.875 68.0469 33.7969 66.0156 32.8594 63.5781C31.6406 60.2969 30.6719 56.2188 29.9531 51.3438C26.3281 51.0625 23.2969 50.7969 20.8594 50.5469C22.3281 58.7031 23.25 65.8906 23.625 72.1094C21.75 73.3281 18.9844 73.9375 15.3281 73.9375C12.5781 73.9375 10.1094 73.5938 7.92188 72.9062C5.76562 72.2188 4.04688 71.2812 2.76562 70.0938C2.98438 65.5938 3.57812 60.6875 4.54688 55.375C5.51562 50.0625 6.59375 45.6875 7.78125 42.25C6.625 38.7812 5.60938 34.8281 4.73438 30.3906C3.89062 25.9219 2.95312 20.4844 1.92188 14.0781L0.84375 7.42188C1.4375 6.48438 2.48438 5.54688 3.98438 4.60938C5.48438 3.67188 7.26562 2.89062 9.32812 2.26562C11.4219 1.64063 13.5625 1.32812 15.75 1.32812C18.875 1.32812 21.4688 1.95312 23.5312 3.20312L20.1562 42.2969L25.125 41.7344C27.0938 38.0156 29.0938 33.7344 31.125 28.8906C33.1875 24.0156 34.5156 20.2344 35.1094 17.5469L28.5 15.2031C28.875 11.7344 29.75 8.65625 31.125 5.96875C32.5312 3.25 34.3125 1.39062 36.4688 0.390625C38 0.390625 39.8906 0.671875 42.1406 1.23438C44.3906 1.79688 46.6406 2.70312 48.8906 3.95312C51.1719 5.20313 53.0625 6.78125 54.5625 8.6875C54.0625 12.9688 52.2188 18.125 49.0312 24.1562C45.875 30.1562 42.25 36.0469 38.1562 41.8281C41.75 48.7656 44.7656 53.4375 47.2031 55.8438C48.9844 55.2188 51.0938 53.875 53.5312 51.8125L59.0625 56.5938ZM107.109 8.96875C111.328 29.875 114.109 44.4375 115.453 52.6562C116.828 60.8438 117.516 66.3438 117.516 69.1562C117.516 69.7188 117.484 70.4688 117.422 71.4062C114.703 73.0938 111.438 73.9375 107.625 73.9375C105.25 73.9375 103.016 73.5938 100.922 72.9062C98.8594 72.2188 97.2812 71.2969 96.1875 70.1406L99.9844 57.3906L99.0938 53.3125H96.5625C92.6875 53.0938 88.7188 52.8125 84.6562 52.4688C84.0938 57.125 83.4688 60.875 82.7812 63.7188C82.0938 66.5625 80.875 68.9844 79.125 70.9844C77.4062 72.9531 74.9688 73.9375 71.8125 73.9375C69.0625 73.9375 66.5156 73.2656 64.1719 71.9219C61.8281 70.5781 60.2188 68.75 59.3438 66.4375L61.4531 58.7969L67.6406 59.3125L75.7969 18.2969C70.8281 17.6094 67.2344 16.8438 65.0156 16C65.1094 13.2812 65.6719 10.4062 66.7031 7.375C67.7656 4.34375 69.2031 2.01563 71.0156 0.390625C82.5469 2.29688 94.5781 5.15625 107.109 8.96875ZM96.6562 42.2969L91.7812 19.9844L87.75 19.6562C87.5938 22.375 87.3281 25.9219 86.9531 30.2969C86.6094 34.6719 86.2031 39.0156 85.7344 43.3281L96.6562 42.2969ZM122.531 7.42188C123.125 6.48438 124.172 5.54688 125.672 4.60938C127.172 3.67188 128.953 2.89062 131.016 2.26562C133.109 1.64063 135.25 1.32812 137.438 1.32812C140.562 1.32812 143.156 1.95312 145.219 3.20312L141.562 45.6719C142.344 49.3906 143.016 53.5938 143.578 58.2812C144.172 62.9688 144.594 67.5781 144.844 72.1094C143.844 72.7656 142.703 73.2344 141.422 73.5156C140.172 73.7969 138.703 73.9375 137.016 73.9375C134.297 73.9375 131.922 73.6094 129.891 72.9531C127.859 72.2656 126.203 71.3125 124.922 70.0938C125.172 65.3125 125.703 60.2969 126.516 55.0469C127.359 49.7656 128.344 45.5 129.469 42.25C128.312 38.7812 127.297 34.8281 126.422 30.3906C125.578 25.9219 124.641 20.4844 123.609 14.0781L122.531 7.42188ZM54.1406 127.188C54.2656 128.688 54.3281 130.531 54.3281 132.719C54.3281 138.219 53.875 144.094 52.9688 150.344C52.0938 156.594 50.875 161.906 49.3125 166.281C48.5 167.219 47.3438 168.359 45.8438 169.703C44.375 171.016 42.8281 172.172 41.2031 173.172C39.6094 174.172 38.2344 174.672 37.0781 174.672C35.4844 174.703 32.8281 174.375 29.1094 173.688C25.4219 173 22.2188 172.234 19.5 171.391L21.1875 179.781L30.8438 180.391L32.1562 186.203C31.5625 187.422 30.4375 188.641 28.7812 189.859C27.1562 191.047 25.2188 192.031 22.9688 192.812C20.7188 193.594 18.4062 193.984 16.0312 193.984C14.0938 193.984 12.3594 193.609 10.8281 192.859C9.32812 192.078 8.14062 191.094 7.26562 189.906C6.42188 188.719 6 187.516 6 186.297C6 184.891 6.10938 182.234 6.32812 178.328C6.57812 174.391 6.89062 171.656 7.26562 170.125C6.51562 168.625 5.65625 164.906 4.6875 158.969C3.75 153.031 2.90625 146.859 2.15625 140.453C1.4375 134.016 1.07812 129.938 1.07812 128.219L1.125 127.703C2.53125 125.797 4.42188 124.266 6.79688 123.109C9.17188 121.922 11.625 121.328 14.1562 121.328C17.0312 121.328 19.5938 122.094 21.8438 123.625L17.3906 146.922L18.75 147.578L31.2656 121.234C31.9219 121.047 32.8125 120.875 33.9375 120.719C35.0938 120.531 36.2812 120.438 37.5 120.438C38.8125 120.438 40.4219 120.688 42.3281 121.188C44.2656 121.688 46.2812 122.453 48.375 123.484C50.4688 124.484 52.3906 125.719 54.1406 127.188ZM34.2656 163.094C35.4531 156.375 36.0469 150.438 36.0469 145.281C36.0469 143.281 35.9531 141.328 35.7656 139.422L33.5625 139.047C31.2812 142.516 28.7812 146.453 26.0625 150.859C23.375 155.234 21.5625 158.422 20.625 160.422C21.1562 160.641 21.9219 160.984 22.9219 161.453C24.9844 162.422 26.75 163.203 28.2188 163.797C29.6875 164.359 30.9688 164.641 32.0625 164.641C33.375 164.641 34.1094 164.125 34.2656 163.094ZM98.5781 120.391C100.047 121.234 101.156 122.578 101.906 124.422C102.656 126.266 103.031 128.328 103.031 130.609C103.031 133.172 102.578 135.625 101.672 137.969C100.797 140.312 99.6094 142.062 98.1094 143.219C95.7969 143 93.2969 142.578 90.6094 141.953C87.9531 141.297 83.8125 140.203 78.1875 138.672L76.125 138.109L77.9531 153.109C81.5156 152.703 84.4688 152.297 86.8125 151.891C89.1562 151.484 92.0469 150.922 95.4844 150.203C95.5781 150.172 96.8125 149.906 99.1875 149.406C100.438 151.312 101.062 153.688 101.062 156.531C101.062 158.438 100.812 160.281 100.312 162.062C99.8125 163.812 99.2656 165 98.6719 165.625C97.7344 165.719 96.7969 165.766 95.8594 165.766C92.6406 165.766 89.5 165.453 86.4375 164.828C83.4062 164.203 80.7031 163.219 78.3281 161.875L77.6719 178.516L91.125 178.984L94.9688 170.078L103.406 170.781C103.875 172.062 104.281 174.047 104.625 176.734C105 179.391 105.188 181.797 105.188 183.953C103.938 186.484 102.297 188.625 100.266 190.375C98.2656 192.094 95.9844 193.281 93.4219 193.938C89.3594 193.812 84.3594 193.328 78.4219 192.484C72.5156 191.609 67.8281 190.719 64.3594 189.812C61.8906 186.875 60.4375 183.812 60 180.625L67.4062 161.078L56.0156 133.703C56.0156 131.672 56.7812 129.469 58.3125 127.094C59.8438 124.688 61.625 122.781 63.6562 121.375L79.2656 124.797L98.5781 120.391ZM157.688 142.188C156.25 142.188 154.375 141.906 152.062 141.344C149.781 140.781 147.828 140.109 146.203 139.328L143.391 165.625L143.812 178.281L154.125 173.547L157.781 179.734C157.438 181.297 156.484 183.219 154.922 185.5C153.391 187.781 151.594 189.766 149.531 191.453C147.469 193.141 145.484 193.984 143.578 193.984C141.297 193.984 138.953 193.516 136.547 192.578C134.141 191.609 132.094 190.234 130.406 188.453C128.75 186.672 127.812 184.641 127.594 182.359C127.531 181.547 127.5 180.938 127.5 180.531C127.5 179.094 127.609 177.688 127.828 176.312C128.047 174.938 128.406 173.094 128.906 170.781C129.375 168.812 129.719 167.156 129.938 165.812H130.031L127.219 135.859L122.016 134.547L120.094 147.719C118.094 148.406 116.203 148.75 114.422 148.75C112.641 148.75 110.891 148.391 109.172 147.672C108.516 145.672 107.938 143.422 107.438 140.922C106.906 138.422 106.641 136.078 106.641 133.891C106.641 131.266 107.062 129.203 107.906 127.703C109.531 125.703 111.578 124.047 114.047 122.734C116.547 121.391 118.938 120.609 121.219 120.391L141.797 125.594L158.109 120.391C159.547 121.141 160.641 122.438 161.391 124.281C162.172 126.125 162.562 128.188 162.562 130.469C162.562 132.875 162.125 135.172 161.25 137.359C160.406 139.516 159.219 141.125 157.688 142.188Z" fill="#FEFAFA"/>
</g>
<path d="M59.0625 56.5938H60.0625V56.1363L59.7165 55.8372L59.0625 56.5938ZM57.75 63.625L58.6884 63.9707L58.6898 63.9667L57.75 63.625ZM54.6562 69.7656L53.8335 69.1972L53.83 69.2023L54.6562 69.7656ZM40.5469 72.9062L40.8543 71.9547L40.8459 71.9519L40.8374 71.9494L40.5469 72.9062ZM32.8594 63.5781L31.9219 63.9263L31.926 63.9371L32.8594 63.5781ZM29.9531 51.3438L30.9424 51.1979L30.826 50.4085L30.0305 50.3467L29.9531 51.3438ZM20.8594 50.5469L20.9614 49.5521L19.6397 49.4165L19.8752 50.7241L20.8594 50.5469ZM23.625 72.1094L24.17 72.9478L24.6582 72.6305L24.6232 72.0492L23.625 72.1094ZM7.92188 72.9062L7.6181 73.859L7.62205 73.8602L7.92188 72.9062ZM2.76562 70.0938L1.7668 70.0452L1.74419 70.5105L2.08586 70.8272L2.76562 70.0938ZM7.78125 42.25L8.72644 42.5765L8.83726 42.2557L8.72993 41.9338L7.78125 42.25ZM4.73438 30.3906L3.7517 30.5762L3.75327 30.5841L4.73438 30.3906ZM1.92188 14.0781L2.90917 13.9192L2.90901 13.9182L1.92188 14.0781ZM0.84375 7.42188L-0.00106908 6.88682L-0.204038 7.2073L-0.143385 7.58176L0.84375 7.42188ZM9.32812 2.26562L9.04209 1.3074L9.03812 1.3086L9.32812 2.26562ZM23.5312 3.20312L24.5275 3.28914L24.581 2.67001L24.0496 2.34793L23.5312 3.20312ZM20.1562 42.2969L19.16 42.2109L19.0549 43.4279L20.2687 43.2905L20.1562 42.2969ZM25.125 41.7344L25.2375 42.728L25.7619 42.6687L26.0088 42.2023L25.125 41.7344ZM31.125 28.8906L30.204 28.501L30.2028 28.5039L31.125 28.8906ZM35.1094 17.5469L36.0858 17.7626L36.2765 16.8997L35.4436 16.6044L35.1094 17.5469ZM28.5 15.2031L27.5058 15.0956L27.4208 15.8815L28.1658 16.1456L28.5 15.2031ZM31.125 5.96875L30.2368 5.50932L30.2348 5.51327L31.125 5.96875ZM36.4688 0.390625V-0.609375H36.2482L36.048 -0.516563L36.4688 0.390625ZM48.8906 3.95312L48.405 4.8273L48.4101 4.8301L48.8906 3.95312ZM54.5625 8.6875L55.5557 8.8035L55.6036 8.3935L55.3484 8.06911L54.5625 8.6875ZM49.0312 24.1562L48.1471 23.689L48.1462 23.6907L49.0312 24.1562ZM38.1562 41.8281L37.3401 41.2502L36.9882 41.7473L37.2683 42.2881L38.1562 41.8281ZM47.2031 55.8438L46.5006 56.5554L46.945 56.9941L47.5342 56.7873L47.2031 55.8438ZM53.5312 51.8125L54.1852 51.056L53.5382 50.4967L52.8853 51.0491L53.5312 51.8125ZM58.0625 56.5938C58.0625 58.7451 57.6502 60.9732 56.8102 63.2833L58.6898 63.9667C59.5998 61.4643 60.0625 59.0049 60.0625 56.5938H58.0625ZM56.8117 63.2793C55.9598 65.5915 54.9645 67.5603 53.8335 69.1972L55.479 70.3341C56.723 68.5335 57.7902 66.4085 58.6883 63.9707L56.8117 63.2793ZM53.83 69.2023C52.9873 70.4383 51.9334 71.3493 50.6623 71.9572L51.5252 73.7615C53.1291 72.9944 54.4502 71.843 55.4825 70.329L53.83 69.2023ZM50.6623 71.9572C49.3746 72.5731 47.9153 72.8906 46.2656 72.8906V74.8906C48.1785 74.8906 49.9379 74.5207 51.5252 73.7615L50.6623 71.9572ZM46.2656 72.8906C44.6071 72.8906 42.8053 72.585 40.8543 71.9547L40.2394 73.8578C42.3509 74.54 44.3617 74.8906 46.2656 74.8906V72.8906ZM40.8374 71.9494C39.3132 71.4867 37.9997 70.5465 36.8937 69.0719L35.2938 70.2719C36.6253 72.0472 38.2805 73.2633 40.2564 73.8631L40.8374 71.9494ZM36.8937 69.0719C35.7435 67.5382 34.706 65.5937 33.7927 63.2191L31.926 63.9371C32.8877 66.4375 34.0065 68.5555 35.2938 70.2719L36.8937 69.0719ZM33.7968 63.2299C32.61 60.0346 31.6548 56.0294 30.9424 51.1979L28.9638 51.4896C29.689 56.4081 30.6713 60.5592 31.9219 63.9263L33.7968 63.2299ZM30.0305 50.3467C26.4102 50.0659 23.3878 49.801 20.9614 49.5521L20.7573 51.5417C23.206 51.7928 26.2461 52.0591 29.8758 52.3408L30.0305 50.3467ZM19.8752 50.7241C21.3391 58.8534 22.2548 66.0004 22.6268 72.1696L24.6232 72.0492C24.2452 65.7808 23.3171 58.5528 21.8435 50.3696L19.8752 50.7241ZM23.08 71.2709C21.4403 72.3367 18.9019 72.9375 15.3281 72.9375V74.9375C19.0668 74.9375 22.0597 74.3195 24.17 72.9478L23.08 71.2709ZM15.3281 72.9375C12.6602 72.9375 10.2951 72.6039 8.2217 71.9523L7.62205 73.8602C9.92365 74.5836 12.496 74.9375 15.3281 74.9375V72.9375ZM8.22565 71.9535C6.16956 71.2979 4.59203 70.4231 3.44539 69.3603L2.08586 70.8272C3.50172 72.1394 5.36169 73.1396 7.6181 73.859L8.22565 71.9535ZM3.76445 70.1423C3.98069 65.6938 4.56829 60.8318 5.53065 55.5544L3.5631 55.1956C2.58796 60.5432 1.98806 65.4937 1.7668 70.0452L3.76445 70.1423ZM5.53065 55.5544C6.49421 50.2704 7.56138 45.9491 8.72644 42.5765L6.83606 41.9235C5.62612 45.4259 4.53704 49.8546 3.5631 55.1956L5.53065 55.5544ZM8.72993 41.9338C7.58978 38.5133 6.58412 34.6024 5.71548 30.1972L3.75327 30.5841C4.63463 35.0538 5.66022 39.0492 6.83257 42.5662L8.72993 41.9338ZM5.71701 30.2051C4.87547 25.748 3.93953 20.32 2.90916 13.9192L0.934585 14.2371C1.96672 20.6488 2.90578 26.0957 3.75174 30.5762L5.71701 30.2051ZM2.90901 13.9182L1.83089 7.26199L-0.143385 7.58176L0.93474 14.238L2.90901 13.9182ZM1.68857 7.95693C2.16842 7.19926 3.07417 6.3575 4.51437 5.45737L3.45438 3.76138C1.89458 4.73625 0.706578 5.76949 -0.00106908 6.88682L1.68857 7.95693ZM4.51437 5.45737C5.92535 4.57552 7.62242 3.82741 9.61813 3.22265L9.03812 1.3086C6.90883 1.95384 5.0434 2.76823 3.45438 3.76138L4.51437 5.45737ZM9.61416 3.22384C11.615 2.62658 13.6593 2.32812 15.75 2.32812V0.328125C13.4657 0.328125 11.2288 0.654667 9.04209 1.30741L9.61416 3.22384ZM15.75 2.32812C18.7452 2.32812 21.1466 2.92719 23.0129 4.05832L24.0496 2.34793C21.7909 0.97906 19.0048 0.328125 15.75 0.328125V2.32812ZM22.535 3.11711L19.16 42.2109L21.1525 42.3829L24.5275 3.28914L22.535 3.11711ZM20.2687 43.2905L25.2375 42.728L25.0125 40.7407L20.0438 41.3032L20.2687 43.2905ZM26.0088 42.2023C27.9945 38.4515 30.0071 34.1423 32.0472 29.2774L30.2028 28.5039C28.1804 33.3265 26.193 37.5797 24.2412 41.2665L26.0088 42.2023ZM32.046 29.2803C34.1147 24.3904 35.4719 20.5415 36.0858 17.7626L34.1329 17.3311C33.5594 19.9272 32.2603 23.6408 30.204 28.501L32.046 29.2803ZM35.4436 16.6044L28.8342 14.2606L28.1658 16.1456L34.7752 18.4894L35.4436 16.6044ZM29.4942 15.3106C29.8581 11.9446 30.7038 8.98753 32.0152 6.42423L30.2348 5.51327C28.7962 8.32497 27.8919 11.5242 27.5058 15.0956L29.4942 15.3106ZM32.0132 6.42817C33.3472 3.84919 34.9859 2.18063 36.8895 1.29781L36.048 -0.516563C33.6391 0.600618 31.7153 2.65081 30.2368 5.50933L32.0132 6.42817ZM36.4688 1.39062C37.8879 1.39062 39.6912 1.6528 41.8981 2.20452L42.3832 0.264232C40.09 -0.309052 38.1121 -0.609375 36.4688 -0.609375V1.39062ZM41.8981 2.20452C44.0545 2.74362 46.2232 3.61518 48.405 4.82728L49.3763 3.07897C47.0581 1.79107 44.7268 0.850133 42.3832 0.264232L41.8981 2.20452ZM48.4101 4.8301C50.5818 6.0201 52.3658 7.51302 53.7766 9.30589L55.3484 8.06911C53.7592 6.04948 51.7619 4.38615 49.3712 3.07615L48.4101 4.8301ZM53.5693 8.5715C53.0895 12.6795 51.3066 17.7108 48.1471 23.689L49.9154 24.6235C53.1309 18.5392 55.0355 13.258 55.5557 8.8035L53.5693 8.5715ZM48.1462 23.6907C45.0113 29.6501 41.4096 35.5033 37.3401 41.2502L38.9724 42.406C43.0904 36.5905 46.7387 30.6624 49.9163 24.6218L48.1462 23.6907ZM37.2683 42.2881C40.8645 49.2304 43.9408 54.0284 46.5006 56.5554L47.9057 55.1321C45.5905 52.8466 42.6355 48.3009 39.0442 41.3682L37.2683 42.2881ZM47.5342 56.7873C49.4833 56.1035 51.7019 54.6704 54.1772 52.5759L52.8853 51.0491C50.4856 53.0796 48.4854 54.334 46.872 54.9002L47.5342 56.7873ZM52.8773 52.569L58.4085 57.3503L59.7165 55.8372L54.1852 51.056L52.8773 52.569ZM107.109 8.96875L108.09 8.77094L107.972 8.1858L107.4 8.01205L107.109 8.96875ZM115.453 52.6562L114.466 52.8176L114.467 52.8219L115.453 52.6562ZM117.422 71.4062L117.949 72.2559L118.386 71.9851L118.42 71.4728L117.422 71.4062ZM100.922 72.9062L100.606 73.8549L100.61 73.8563L100.922 72.9062ZM96.1875 70.1406L95.2291 69.8552L95.0643 70.4085L95.461 70.8278L96.1875 70.1406ZM99.9844 57.3906L100.943 57.676L101.016 57.429L100.961 57.1773L99.9844 57.3906ZM99.0938 53.3125L100.071 53.0991L99.8989 52.3125H99.0938V53.3125ZM96.5625 53.3125L96.5061 54.3109L96.5343 54.3125H96.5625V53.3125ZM84.6562 52.4688L84.7406 51.4723L83.7792 51.391L83.6635 52.3488L84.6562 52.4688ZM79.125 70.9844L78.3724 70.3259L78.3717 70.3267L79.125 70.9844ZM59.3438 66.4375L58.3798 66.1714L58.2929 66.4861L58.4085 66.7914L59.3438 66.4375ZM61.4531 58.7969L61.5362 57.8003L60.7098 57.7315L60.4892 58.5308L61.4531 58.7969ZM67.6406 59.3125L67.5576 60.309L68.4473 60.3832L68.6214 59.5075L67.6406 59.3125ZM75.7969 18.2969L76.7777 18.4919L76.9845 17.4517L75.9339 17.3063L75.7969 18.2969ZM65.0156 16L64.0162 15.9655L63.9916 16.6804L64.6602 16.9347L65.0156 16ZM66.7031 7.375L65.7594 7.0442L65.7564 7.05292L66.7031 7.375ZM71.0156 0.390625L71.1787 -0.595985L70.7053 -0.674242L70.3481 -0.353944L71.0156 0.390625ZM96.6562 42.2969L96.7503 43.2924L97.8742 43.1863L97.6332 42.0834L96.6562 42.2969ZM91.7812 19.9844L92.7582 19.7709L92.6002 19.0477L91.8624 18.9877L91.7812 19.9844ZM87.75 19.6562L87.8311 18.6595L86.8104 18.5765L86.7516 19.5989L87.75 19.6562ZM86.9531 30.2969L85.9568 30.2115L85.9562 30.2185L86.9531 30.2969ZM85.7344 43.3281L84.7402 43.2201L84.6077 44.4389L85.8284 44.3237L85.7344 43.3281ZM106.129 9.16656C110.348 30.0736 113.126 44.6194 114.466 52.8176L116.44 52.4949C115.093 44.2556 112.308 29.6764 108.09 8.77094L106.129 9.16656ZM114.467 52.8219C115.844 61.0223 116.516 66.4407 116.516 69.1562H118.516C118.516 66.2468 117.812 60.6652 116.439 52.4906L114.467 52.8219ZM116.516 69.1562C116.516 69.6868 116.486 70.4119 116.424 71.3397L118.42 71.4728C118.483 70.5256 118.516 69.7507 118.516 69.1562H116.516ZM116.895 70.5566C114.362 72.1284 111.287 72.9375 107.625 72.9375V74.9375C111.588 74.9375 115.044 74.0591 117.949 72.2559L116.895 70.5566ZM107.625 72.9375C105.348 72.9375 103.219 72.6081 101.234 71.9562L100.61 73.8563C102.812 74.5794 105.152 74.9375 107.625 74.9375V72.9375ZM101.238 71.9576C99.2773 71.304 97.8608 70.4544 96.914 69.4534L95.461 70.8278C96.7017 72.1394 98.4414 73.1335 100.606 73.8549L101.238 71.9576ZM97.1459 70.426L100.943 57.676L99.026 57.1052L95.2291 69.8552L97.1459 70.426ZM100.961 57.1773L100.071 53.0991L98.1168 53.5259L99.0074 57.604L100.961 57.1773ZM99.0938 52.3125H96.5625V54.3125H99.0938V52.3125ZM96.6189 52.3141C92.7536 52.0959 88.7942 51.8153 84.7406 51.4723L84.5719 53.4652C88.6433 53.8097 92.6214 54.0916 96.5061 54.3109L96.6189 52.3141ZM83.6635 52.3488C83.1032 56.9864 82.4838 60.6935 81.8093 63.4838L83.7532 63.9537C84.4537 61.0565 85.0843 57.2636 85.649 52.5887L83.6635 52.3488ZM81.8093 63.4838C81.1558 66.1868 80.0058 68.4592 78.3724 70.3259L79.8776 71.6429C81.7442 69.5096 83.0317 66.9382 83.7532 63.9537L81.8093 63.4838ZM78.3717 70.3267C76.882 72.033 74.7455 72.9375 71.8125 72.9375V74.9375C75.192 74.9375 77.9305 73.8732 79.8783 71.642L78.3717 70.3267ZM71.8125 72.9375C69.2337 72.9375 66.8588 72.3097 64.6693 71.0543L63.6745 72.7894C66.1725 74.2216 68.8913 74.9375 71.8125 74.9375V72.9375ZM64.6693 71.0543C62.5067 69.8145 61.0642 68.1588 60.279 66.0836L58.4085 66.7914C59.3733 69.3412 61.1496 71.3418 63.6745 72.7894L64.6693 71.0543ZM60.3077 66.7036L62.4171 59.063L60.4892 58.5308L58.3798 66.1714L60.3077 66.7036ZM61.3701 59.7934L67.5576 60.309L67.7237 58.316L61.5362 57.8003L61.3701 59.7934ZM68.6214 59.5075L76.7777 18.4919L74.8161 18.1018L66.6598 59.1175L68.6214 59.5075ZM75.9339 17.3063C70.9764 16.6204 67.4776 15.8664 65.3711 15.0653L64.6602 16.9347C66.9911 17.8211 70.6799 18.5984 75.6598 19.2874L75.9339 17.3063ZM66.015 16.0345C66.1049 13.4292 66.6447 10.6515 67.6498 7.69708L65.7564 7.05292C64.699 10.161 64.1139 13.1333 64.0162 15.9655L66.015 16.0345ZM67.6468 7.70578C68.6708 4.78443 70.0299 2.61748 71.6832 1.13519L70.3481 -0.353944C68.3764 1.41377 66.8604 3.90307 65.7594 7.04422L67.6468 7.70578ZM70.8525 1.37723C82.3357 3.27554 94.3241 6.12422 106.818 9.92545L107.4 8.01205C94.8322 4.18828 82.758 1.31821 71.1787 -0.595985L70.8525 1.37723ZM97.6332 42.0834L92.7582 19.7709L90.8043 20.1978L95.6793 42.5103L97.6332 42.0834ZM91.8624 18.9877L87.8311 18.6595L87.6689 20.653L91.7001 20.9811L91.8624 18.9877ZM86.7516 19.5989C86.5962 22.3044 86.3314 25.8409 85.9568 30.2115L87.9495 30.3823C88.3249 26.0028 88.5913 22.4456 88.7484 19.7136L86.7516 19.5989ZM85.9562 30.2185C85.6132 34.5837 85.2079 38.9176 84.7402 43.2201L86.7285 43.4362C87.1984 39.1137 87.6055 34.76 87.9501 30.3752L85.9562 30.2185ZM85.8284 44.3237L96.7503 43.2924L96.5622 41.3013L85.6404 42.3326L85.8284 44.3237ZM122.531 7.42188L121.686 6.88682L121.483 7.2073L121.544 7.58176L122.531 7.42188ZM131.016 2.26562L130.73 1.3074L130.726 1.3086L131.016 2.26562ZM145.219 3.20312L146.215 3.2889L146.268 2.66993L145.737 2.34793L145.219 3.20312ZM141.562 45.6719L140.566 45.5861L140.554 45.7331L140.584 45.8775L141.562 45.6719ZM143.578 58.2812L142.585 58.4004L142.586 58.4069L143.578 58.2812ZM144.844 72.1094L145.392 72.9454L145.874 72.6294L145.842 72.0543L144.844 72.1094ZM141.422 73.5156L141.207 72.5389L141.202 72.54L141.422 73.5156ZM129.891 72.9531L129.57 73.9004L129.583 73.9047L129.891 72.9531ZM124.922 70.0938L123.923 70.0415L123.899 70.5011L124.233 70.8183L124.922 70.0938ZM126.516 55.0469L125.528 54.8891L125.527 54.8939L126.516 55.0469ZM129.469 42.25L130.414 42.5771L130.525 42.2561L130.417 41.9338L129.469 42.25ZM126.422 30.3906L125.439 30.5762L125.441 30.5841L126.422 30.3906ZM123.609 14.0781L124.597 13.9192L124.597 13.9182L123.609 14.0781ZM123.376 7.95693C123.856 7.19926 124.762 6.3575 126.202 5.45737L125.142 3.76138C123.582 4.73625 122.394 5.76949 121.686 6.88682L123.376 7.95693ZM126.202 5.45737C127.613 4.57552 129.31 3.82741 131.306 3.22265L130.726 1.3086C128.596 1.95384 126.731 2.76823 125.142 3.76138L126.202 5.45737ZM131.302 3.22384C133.302 2.62658 135.347 2.32812 137.438 2.32812V0.328125C135.153 0.328125 132.916 0.654667 130.73 1.30741L131.302 3.22384ZM137.438 2.32812C140.433 2.32812 142.834 2.92719 144.7 4.05832L145.737 2.34793C143.478 0.97906 140.692 0.328125 137.438 0.328125V2.32812ZM144.222 3.11735L140.566 45.5861L142.559 45.7577L146.215 3.2889L144.222 3.11735ZM140.584 45.8775C141.358 49.5618 142.025 53.7353 142.585 58.4004L144.571 58.1621C144.006 53.4522 143.33 49.2195 142.541 45.4663L140.584 45.8775ZM142.586 58.4069C143.177 63.0719 143.597 67.6577 143.845 72.1645L145.842 72.0543C145.591 67.4985 145.167 62.8656 144.57 58.1556L142.586 58.4069ZM144.295 71.2733C143.406 71.8565 142.381 72.2812 141.207 72.5389L141.636 74.4924C143.025 74.1875 144.281 73.6747 145.392 72.9454L144.295 71.2733ZM141.202 72.54C140.043 72.8009 138.651 72.9375 137.016 72.9375V74.9375C138.755 74.9375 140.301 74.7929 141.641 74.4912L141.202 72.54ZM137.016 72.9375C134.374 72.9375 132.107 72.6183 130.198 72.0016L129.583 73.9047C131.737 74.6004 134.22 74.9375 137.016 74.9375V72.9375ZM130.211 72.0059C128.289 71.3553 126.767 70.4688 125.611 69.3692L124.233 70.8183C125.639 72.1562 127.43 73.176 129.57 73.9003L130.211 72.0059ZM125.921 70.146C126.169 65.4019 126.696 60.42 127.504 55.1998L125.527 54.8939C124.71 60.1737 124.175 65.2231 123.923 70.0415L125.921 70.146ZM127.503 55.2046C128.342 49.9531 129.315 45.7505 130.414 42.5771L128.524 41.9229C127.372 45.2495 126.377 49.5782 125.528 54.8891L127.503 55.2046ZM130.417 41.9338C129.277 38.5133 128.272 34.6024 127.403 30.1972L125.441 30.5841C126.322 35.0538 127.348 39.0492 128.52 42.5662L130.417 41.9338ZM127.405 30.2051C126.563 25.748 125.627 20.32 124.597 13.9192L122.622 14.2371C123.654 20.6488 124.593 26.0957 125.439 30.5762L127.405 30.2051ZM124.597 13.9182L123.518 7.26199L121.544 7.58176L122.622 14.238L124.597 13.9182ZM54.1406 127.188L55.1372 127.104L55.1026 126.689L54.7835 126.422L54.1406 127.188ZM52.9688 150.344L51.9791 150.2L51.9784 150.205L52.9688 150.344ZM49.3125 166.281L50.0682 166.936L50.1911 166.794L50.2542 166.618L49.3125 166.281ZM45.8438 169.703L46.5101 170.449L46.511 170.448L45.8438 169.703ZM41.2031 173.172L40.679 172.32L40.6716 172.325L41.2031 173.172ZM37.0781 174.672V173.672H37.0683L37.0585 173.672L37.0781 174.672ZM29.1094 173.688L28.9261 174.671L28.9276 174.671L29.1094 173.688ZM19.5 171.391L19.7964 170.436L18.1875 169.936L18.5196 171.588L19.5 171.391ZM21.1875 179.781L20.2071 179.978L20.3585 180.731L21.1245 180.779L21.1875 179.781ZM30.8438 180.391L31.8192 180.17L31.6542 179.44L30.9067 179.393L30.8438 180.391ZM32.1562 186.203L33.0552 186.641L33.209 186.325L33.1317 185.983L32.1562 186.203ZM28.7812 189.859L29.3713 190.667L29.3739 190.665L28.7812 189.859ZM10.8281 192.859L10.3662 193.746L10.3772 193.752L10.3883 193.757L10.8281 192.859ZM7.26562 189.906L6.45044 190.485L6.45545 190.492L6.46057 190.499L7.26562 189.906ZM6.32812 178.328L5.33011 178.265L5.32969 178.272L6.32812 178.328ZM7.26562 170.125L8.23692 170.363L8.32427 170.006L8.16005 169.678L7.26562 170.125ZM4.6875 158.969L3.69972 159.125L3.70055 159.13L4.6875 158.969ZM2.15625 140.453L1.16241 140.564L1.16303 140.569L2.15625 140.453ZM1.07812 128.219L0.0822318 128.128L0.078125 128.173V128.219H1.07812ZM1.125 127.703L0.320276 127.109L0.154404 127.334L0.129107 127.613L1.125 127.703ZM6.79688 123.109L7.23462 124.009L7.24409 124.004L6.79688 123.109ZM21.8438 123.625L22.826 123.813L22.9493 123.168L22.4064 122.798L21.8438 123.625ZM17.3906 146.922L16.4084 146.734L16.2642 147.489L16.9559 147.822L17.3906 146.922ZM18.75 147.578L18.3153 148.479L19.2214 148.916L19.6532 148.007L18.75 147.578ZM31.2656 121.234L30.9909 120.273L30.5563 120.397L30.3624 120.805L31.2656 121.234ZM33.9375 120.719L34.0751 121.709L34.0863 121.708L34.0976 121.706L33.9375 120.719ZM42.3281 121.188L42.0744 122.155L42.0782 122.156L42.3281 121.188ZM48.375 123.484L47.9331 124.382L47.944 124.387L48.375 123.484ZM34.2656 163.094L33.2809 162.92L33.2787 162.932L33.2769 162.944L34.2656 163.094ZM35.7656 139.422L36.7608 139.324L36.6861 138.564L35.9334 138.436L35.7656 139.422ZM33.5625 139.047L33.7303 138.061L33.0861 137.951L32.727 138.497L33.5625 139.047ZM26.0625 150.859L25.2115 150.334L25.2104 150.336L26.0625 150.859ZM20.625 160.422L19.7195 159.997L19.2743 160.947L20.2443 161.347L20.625 160.422ZM22.9219 161.453L23.347 160.548L23.3463 160.548L22.9219 161.453ZM28.2188 163.797L27.844 164.724L27.8525 164.727L27.8611 164.731L28.2188 163.797ZM53.1441 127.271C53.266 128.734 53.3281 130.548 53.3281 132.719H55.3281C55.3281 130.515 55.2652 128.641 55.1372 127.104L53.1441 127.271ZM53.3281 132.719C53.3281 138.164 52.8794 143.991 51.9791 150.2L53.9584 150.487C54.8706 144.197 55.3281 138.273 55.3281 132.719H53.3281ZM51.9784 150.205C51.1097 156.41 49.9039 161.652 48.3708 165.945L50.2542 166.618C51.8461 162.16 53.0778 156.778 53.9591 150.482L51.9784 150.205ZM48.5568 165.626C47.7834 166.519 46.6619 167.628 45.1765 168.958L46.511 170.448C48.0256 169.091 49.2166 167.919 50.0682 166.936L48.5568 165.626ZM45.1774 168.957C43.7514 170.232 42.252 171.352 40.679 172.32L41.7272 174.024C43.4043 172.991 44.9986 171.799 46.5101 170.449L45.1774 168.957ZM40.6716 172.325C39.147 173.281 37.9626 173.672 37.0781 173.672V175.672C38.5061 175.672 40.0718 175.062 41.7346 174.019L40.6716 172.325ZM37.0585 173.672C35.5764 173.701 33.009 173.391 29.2912 172.704L28.9276 174.671C32.6472 175.359 35.3924 175.705 37.0977 175.672L37.0585 173.672ZM29.2927 172.704C25.6322 172.022 22.4685 171.265 19.7964 170.436L19.2036 172.346C21.969 173.204 25.2116 173.978 28.9261 174.671L29.2927 172.704ZM18.5196 171.588L20.2071 179.978L22.1679 179.584L20.4804 171.193L18.5196 171.588ZM21.1245 180.779L30.7808 181.389L30.9067 179.393L21.2505 178.783L21.1245 180.779ZM29.8683 180.611L31.1808 186.423L33.1317 185.983L31.8192 180.17L29.8683 180.611ZM31.2573 185.765C30.7616 186.782 29.7761 187.886 28.1886 189.054L29.3739 190.665C31.0989 189.395 32.3634 188.061 33.0552 186.641L31.2573 185.765ZM28.1912 189.052C26.6594 190.171 24.8137 191.113 22.6407 191.868L23.2968 193.757C25.6238 192.949 27.6531 191.922 29.3713 190.667L28.1912 189.052ZM22.6407 191.868C20.4959 192.613 18.2943 192.984 16.0312 192.984V194.984C18.5182 194.984 20.9416 194.575 23.2968 193.757L22.6407 191.868ZM16.0312 192.984C14.2253 192.984 12.6447 192.636 11.268 191.961L10.3883 193.757C12.074 194.583 13.9622 194.984 16.0312 194.984V192.984ZM11.2901 191.972C9.90547 191.251 8.84279 190.361 8.07068 189.313L6.46057 190.499C7.43846 191.827 8.75078 192.905 10.3662 193.746L11.2901 191.972ZM8.08081 189.327C7.33326 188.275 7 187.27 7 186.297H5C5 187.761 5.51049 189.163 6.45044 190.485L8.08081 189.327ZM7 186.297C7 184.923 7.10764 182.293 7.32656 178.384L5.32969 178.272C5.11111 182.175 5 184.859 5 186.297H7ZM7.32612 178.391C7.57629 174.451 7.88545 171.798 8.23692 170.363L6.29433 169.887C5.8958 171.514 5.57996 174.33 5.33013 178.265L7.32612 178.391ZM8.16005 169.678C7.84271 169.043 7.46153 167.84 7.03292 165.986C6.61009 164.156 6.15706 161.766 5.67445 158.808L3.70055 159.13C4.18669 162.109 4.64773 164.547 5.08427 166.436C5.51504 168.3 5.93854 169.707 6.3712 170.572L8.16005 169.678ZM5.67526 158.813C4.73999 152.889 3.89803 146.731 3.14947 140.337L1.16303 140.569C1.91447 146.988 2.76001 153.173 3.69974 159.125L5.67526 158.813ZM3.15007 140.342C2.42926 133.886 2.07812 129.87 2.07812 128.219H0.078125C0.078125 130.005 0.445736 134.145 1.16243 140.564L3.15007 140.342ZM2.07402 128.309L2.12089 127.794L0.129107 127.613L0.0822318 128.128L2.07402 128.309ZM1.92972 128.297C3.22949 126.535 4.98784 125.102 7.2346 124.008L6.35915 122.21C3.85591 123.429 1.83301 125.059 0.320276 127.109L1.92972 128.297ZM7.24409 124.004C9.48724 122.882 11.7879 122.328 14.1562 122.328V120.328C11.4621 120.328 8.85651 120.962 6.34966 122.215L7.24409 124.004ZM14.1562 122.328C16.8425 122.328 19.2066 123.04 21.2811 124.452L22.4064 122.798C19.9809 121.148 17.22 120.328 14.1562 120.328V122.328ZM20.8615 123.437L16.4084 146.734L18.3728 147.11L22.826 123.813L20.8615 123.437ZM16.9559 147.822L18.3153 148.479L19.1847 146.678L17.8254 146.021L16.9559 147.822ZM19.6532 148.007L32.1689 121.663L30.3624 120.805L17.8468 147.149L19.6532 148.007ZM31.5403 122.196C32.1319 122.027 32.9703 121.863 34.0751 121.709L33.7999 119.728C32.6547 119.887 31.7118 120.067 30.9909 120.273L31.5403 122.196ZM34.0976 121.706C35.1988 121.527 36.3327 121.438 37.5 121.438V119.438C36.2298 119.438 34.9887 119.535 33.7774 119.732L34.0976 121.706ZM37.5 121.438C38.6956 121.438 40.214 121.667 42.0744 122.155L42.5818 120.22C40.6297 119.708 38.9294 119.438 37.5 119.438V121.438ZM42.0782 122.156C43.9396 122.636 45.8909 123.376 47.9332 124.381L48.8168 122.587C46.6716 121.531 44.5916 120.739 42.578 120.219L42.0782 122.156ZM47.944 124.387C49.9629 125.351 51.8134 126.54 53.4978 127.953L54.7835 126.422C52.9679 124.898 50.9746 123.618 48.806 122.582L47.944 124.387ZM35.2504 163.268C36.445 156.509 37.0469 150.511 37.0469 145.281H35.0469C35.0469 150.364 34.4613 156.241 33.2809 162.92L35.2504 163.268ZM37.0469 145.281C37.0469 143.25 36.9517 141.264 36.7608 139.324L34.7704 139.52C34.9546 141.392 35.0469 143.313 35.0469 145.281H37.0469ZM35.9334 138.436L33.7303 138.061L33.3947 140.033L35.5978 140.408L35.9334 138.436ZM32.727 138.497C30.4393 141.976 27.9341 145.922 25.2115 150.334L26.9135 151.384C29.6284 146.985 32.1232 143.055 34.398 139.596L32.727 138.497ZM25.2104 150.336C22.5221 154.712 20.6831 157.942 19.7195 159.997L21.5305 160.846C22.4419 158.902 24.2279 155.756 26.9146 151.383L25.2104 150.336ZM20.2443 161.347C20.753 161.556 21.5013 161.892 22.4974 162.359L23.3463 160.548C22.3424 160.077 21.5595 159.725 21.0057 159.497L20.2443 161.347ZM22.4967 162.358C24.5693 163.332 26.3527 164.121 27.844 164.724L28.5935 162.87C27.1473 162.285 25.3994 161.512 23.347 160.548L22.4967 162.358ZM27.8611 164.731C29.3982 165.319 30.8055 165.641 32.0625 165.641V163.641C31.132 163.641 29.9768 163.399 28.5764 162.863L27.8611 164.731ZM32.0625 165.641C32.8338 165.641 33.5753 165.491 34.1723 165.072C34.7997 164.632 35.1425 163.981 35.2543 163.244L33.2769 162.944C33.2325 163.237 33.13 163.36 33.023 163.435C32.8856 163.532 32.6037 163.641 32.0625 163.641V165.641ZM98.5781 120.391L99.0762 119.524L98.7371 119.329L98.3557 119.416L98.5781 120.391ZM101.672 137.969L100.739 137.608L100.735 137.619L101.672 137.969ZM98.1094 143.219L98.0152 144.214L98.4077 144.251L98.7199 144.011L98.1094 143.219ZM90.6094 141.953L90.3695 142.924L90.3829 142.927L90.6094 141.953ZM78.1875 138.672L77.9244 139.637L77.9248 139.637L78.1875 138.672ZM76.125 138.109L76.3881 137.145L74.9523 136.753L75.1323 138.23L76.125 138.109ZM77.9531 153.109L76.9605 153.23L77.0805 154.215L78.0664 154.103L77.9531 153.109ZM95.4844 150.203L95.689 151.182L95.7457 151.17L95.8006 151.152L95.4844 150.203ZM99.1875 149.406L100.024 148.858L99.6494 148.287L98.9815 148.428L99.1875 149.406ZM100.312 162.062L101.274 162.337L101.275 162.333L100.312 162.062ZM98.6719 165.625L98.7714 166.62L99.141 166.583L99.3969 166.314L98.6719 165.625ZM86.4375 164.828L86.2356 165.808L86.2375 165.808L86.4375 164.828ZM78.3281 161.875L78.8206 161.005L77.3935 160.197L77.3289 161.836L78.3281 161.875ZM77.6719 178.516L76.6727 178.476L76.6331 179.48L77.6371 179.515L77.6719 178.516ZM91.125 178.984L91.0902 179.984L91.7726 180.008L92.0431 179.381L91.125 178.984ZM94.9688 170.078L95.0518 169.082L94.3354 169.022L94.0506 169.682L94.9688 170.078ZM103.406 170.781L104.345 170.438L104.126 169.838L103.489 169.785L103.406 170.781ZM104.625 176.734L103.633 176.861L103.635 176.874L104.625 176.734ZM105.188 183.953L106.084 184.396L106.188 184.187V183.953H105.188ZM100.266 190.375L100.917 191.133L100.918 191.133L100.266 190.375ZM93.4219 193.938L93.3911 194.937L93.5327 194.941L93.67 194.906L93.4219 193.938ZM78.4219 192.484L78.2753 193.474L78.2812 193.474L78.4219 192.484ZM64.3594 189.812L63.5938 190.456L63.7986 190.7L64.1066 190.78L64.3594 189.812ZM60 180.625L59.0649 180.271L58.9747 180.509L59.0093 180.761L60 180.625ZM67.4062 161.078L68.3414 161.432L68.4822 161.061L68.3295 160.694L67.4062 161.078ZM56.0156 133.703H55.0156V133.903L55.0924 134.087L56.0156 133.703ZM58.3125 127.094L59.153 127.636L59.1562 127.631L58.3125 127.094ZM63.6562 121.375L63.8704 120.398L63.4451 120.305L63.087 120.553L63.6562 121.375ZM79.2656 124.797L79.0515 125.774L79.27 125.822L79.4881 125.772L79.2656 124.797ZM98.08 121.258C99.3228 121.972 100.299 123.124 100.98 124.799L102.833 124.045C102.014 122.032 100.771 120.497 99.0762 119.524L98.08 121.258ZM100.98 124.799C101.675 126.507 102.031 128.439 102.031 130.609H104.031C104.031 128.218 103.638 126.025 102.833 124.045L100.98 124.799ZM102.031 130.609C102.031 133.051 101.6 135.382 100.739 137.608L102.605 138.329C103.556 135.868 104.031 133.293 104.031 130.609H102.031ZM100.735 137.619C99.9049 139.843 98.8105 141.416 97.4989 142.427L98.7199 144.011C100.408 142.709 101.689 140.782 102.609 138.319L100.735 137.619ZM98.2035 142.223C95.9429 142.009 93.4876 141.596 90.8359 140.979L90.3829 142.927C93.1061 143.56 95.6508 143.991 98.0152 144.214L98.2035 142.223ZM90.8492 140.982C88.2051 140.329 84.074 139.238 78.4502 137.707L77.9248 139.637C83.551 141.168 87.7011 142.265 90.3695 142.924L90.8492 140.982ZM78.4506 137.707L76.3881 137.145L75.8619 139.074L77.9244 139.637L78.4506 137.707ZM75.1323 138.23L76.9605 153.23L78.9458 152.988L77.1177 137.988L75.1323 138.23ZM78.0664 154.103C81.6396 153.695 84.6135 153.287 86.9833 152.876L86.6417 150.905C84.324 151.307 81.3917 151.711 77.8398 152.116L78.0664 154.103ZM86.9833 152.876C89.3423 152.467 92.245 151.902 95.689 151.182L95.2797 149.224C91.8487 149.942 88.9702 150.502 86.6417 150.905L86.9833 152.876ZM95.8006 151.152C95.7616 151.165 95.7858 151.157 95.9867 151.112C96.1488 151.075 96.3831 151.024 96.6908 150.958C97.3058 150.826 98.2064 150.635 99.3935 150.385L98.9815 148.428C97.7936 148.678 96.8895 148.87 96.2701 149.003C95.9607 149.069 95.7203 149.122 95.5504 149.16C95.4193 149.189 95.254 149.226 95.1681 149.254L95.8006 151.152ZM98.3513 149.955C99.4707 151.662 100.062 153.834 100.062 156.531H102.062C102.062 153.541 101.404 150.963 100.024 148.858L98.3513 149.955ZM100.062 156.531C100.062 158.349 99.8243 160.102 99.3497 161.792L101.275 162.333C101.801 160.461 102.062 158.526 102.062 156.531H100.062ZM99.351 161.788C98.8565 163.519 98.3617 164.5 97.9469 164.936L99.3969 166.314C100.17 165.5 100.769 164.106 101.274 162.337L99.351 161.788ZM98.5724 164.63C97.6678 164.72 96.7635 164.766 95.8594 164.766V166.766C96.8303 166.766 97.801 166.717 98.7714 166.62L98.5724 164.63ZM95.8594 164.766C92.7058 164.766 89.6322 164.459 86.6375 163.848L86.2375 165.808C89.3678 166.447 92.5755 166.766 95.8594 166.766V164.766ZM86.6394 163.849C83.6966 163.242 81.0938 162.291 78.8206 161.005L77.8357 162.745C80.3125 164.147 83.1159 165.164 86.2356 165.808L86.6394 163.849ZM77.3289 161.836L76.6727 178.476L78.6711 178.555L79.3273 161.914L77.3289 161.836ZM77.6371 179.515L91.0902 179.984L91.1598 177.985L77.7067 177.516L77.6371 179.515ZM92.0431 179.381L95.8869 170.474L94.0506 169.682L90.2069 178.588L92.0431 179.381ZM94.8857 171.075L103.323 171.778L103.489 169.785L95.0518 169.082L94.8857 171.075ZM102.467 171.125C102.896 172.297 103.291 174.19 103.633 176.861L105.617 176.608C105.271 173.903 104.854 171.828 104.345 170.438L102.467 171.125ZM103.635 176.874C104.005 179.495 104.188 181.853 104.188 183.953H106.188C106.188 181.74 105.995 179.286 105.615 176.595L103.635 176.874ZM104.291 183.51C103.097 185.928 101.537 187.96 99.6129 189.617L100.918 191.133C103.057 189.29 104.778 187.041 106.084 184.396L104.291 183.51ZM99.6139 189.617C97.7308 191.235 95.5878 192.351 93.1738 192.969L93.67 194.906C96.3809 194.212 98.8004 192.953 100.917 191.133L99.6139 189.617ZM93.4526 192.938C89.4397 192.814 84.479 192.335 78.5626 191.494L78.2812 193.474C84.2397 194.321 89.279 194.811 93.3911 194.937L93.4526 192.938ZM78.5684 191.495C72.6778 190.622 68.0306 189.738 64.6122 188.845L64.1066 190.78C67.6257 191.699 72.3534 192.596 78.2753 193.474L78.5684 191.495ZM65.1249 189.169C62.754 186.348 61.398 183.456 60.9907 180.489L59.0093 180.761C59.477 184.169 61.0273 187.402 63.5938 190.456L65.1249 189.169ZM60.9351 180.979L68.3414 161.432L66.4711 160.724L59.0649 180.271L60.9351 180.979ZM68.3295 160.694L56.9389 133.319L55.0924 134.087L66.483 161.462L68.3295 160.694ZM57.0156 133.703C57.0156 131.925 57.6867 129.91 59.153 127.636L57.472 126.552C55.8758 129.028 55.0156 131.418 55.0156 133.703H57.0156ZM59.1562 127.631C60.6268 125.32 62.3194 123.517 64.2255 122.197L63.087 120.553C60.9306 122.046 59.0607 124.055 57.4688 126.557L59.1562 127.631ZM63.4421 122.352L79.0515 125.774L79.4798 123.82L63.8704 120.398L63.4421 122.352ZM79.4881 125.772L98.8006 121.366L98.3557 119.416L79.0432 123.822L79.4881 125.772ZM157.688 142.188V143.188H158L158.258 143.009L157.688 142.188ZM152.062 141.344L151.823 142.315L151.826 142.315L152.062 141.344ZM146.203 139.328L146.636 138.427L145.359 137.813L145.209 139.222L146.203 139.328ZM143.391 165.625L142.396 165.519L142.389 165.588L142.391 165.658L143.391 165.625ZM143.812 178.281L142.813 178.315L142.863 179.817L144.23 179.19L143.812 178.281ZM154.125 173.547L154.986 173.038L154.527 172.262L153.708 172.638L154.125 173.547ZM157.781 179.734L158.758 179.949L158.843 179.565L158.642 179.226L157.781 179.734ZM154.922 185.5L154.097 184.935L154.092 184.943L154.922 185.5ZM136.547 192.578L136.173 193.506L136.184 193.51L136.547 192.578ZM130.406 188.453L129.674 189.134L129.68 189.141L130.406 188.453ZM127.594 182.359L126.597 182.436L126.597 182.445L126.598 182.455L127.594 182.359ZM128.906 170.781L127.933 170.55L127.931 170.56L127.929 170.57L128.906 170.781ZM129.938 165.812V164.812H129.087L128.95 165.652L129.938 165.812ZM130.031 165.812V166.812H131.13L131.027 165.719L130.031 165.812ZM127.219 135.859L128.214 135.766L128.148 135.063L127.463 134.89L127.219 135.859ZM122.016 134.547L122.26 133.577L121.186 133.306L121.026 134.402L122.016 134.547ZM120.094 147.719L120.419 148.664L120.995 148.466L121.083 147.863L120.094 147.719ZM109.172 147.672L108.222 147.984L108.364 148.418L108.786 148.594L109.172 147.672ZM107.438 140.922L108.418 140.726L108.416 140.714L107.438 140.922ZM107.906 127.703L107.13 127.073L107.076 127.139L107.035 127.213L107.906 127.703ZM114.047 122.734L114.516 123.617L114.52 123.615L114.047 122.734ZM121.219 120.391L121.464 119.421L121.296 119.379L121.123 119.395L121.219 120.391ZM141.797 125.594L141.552 126.563L141.829 126.633L142.101 126.546L141.797 125.594ZM158.109 120.391L158.572 119.504L158.202 119.311L157.805 119.438L158.109 120.391ZM161.391 124.281L160.464 124.658L160.467 124.665L160.47 124.671L161.391 124.281ZM161.25 137.359L160.321 136.988L160.319 136.995L161.25 137.359ZM157.688 141.188C156.364 141.188 154.577 140.926 152.299 140.372L151.826 142.315C154.173 142.886 156.136 143.188 157.688 143.188V141.188ZM152.302 140.373C150.069 139.822 148.184 139.171 146.636 138.427L145.77 140.229C147.472 141.048 149.494 141.74 151.823 142.315L152.302 140.373ZM145.209 139.222L142.396 165.519L144.385 165.731L147.197 139.434L145.209 139.222ZM142.391 165.658L142.813 178.315L144.812 178.248L144.39 165.592L142.391 165.658ZM144.23 179.19L154.542 174.456L153.708 172.638L143.395 177.372L144.23 179.19ZM153.264 174.056L156.92 180.243L158.642 179.226L154.986 173.038L153.264 174.056ZM156.805 179.52C156.502 180.897 155.632 182.694 154.097 184.935L155.747 186.065C157.337 183.744 158.373 181.697 158.758 179.949L156.805 179.52ZM154.092 184.943C152.613 187.145 150.882 189.056 148.898 190.679L150.164 192.227C152.305 190.476 154.168 188.418 155.752 186.057L154.092 184.943ZM148.898 190.679C146.944 192.278 145.177 192.984 143.578 192.984V194.984C145.792 194.984 147.993 194.003 150.164 192.227L148.898 190.679ZM143.578 192.984C141.436 192.984 139.216 192.545 136.91 191.646L136.184 193.51C138.691 194.487 141.157 194.984 143.578 194.984V192.984ZM136.92 191.65C134.64 190.732 132.715 189.436 131.132 187.765L129.68 189.141C131.472 191.032 133.642 192.486 136.173 193.506L136.92 191.65ZM131.139 187.772C129.622 186.141 128.786 184.312 128.589 182.264L126.598 182.455C126.839 184.969 127.878 187.202 129.674 189.134L131.139 187.772ZM128.591 182.283C128.529 181.476 128.5 180.898 128.5 180.531H126.5C126.5 180.977 126.534 181.618 126.597 182.436L128.591 182.283ZM128.5 180.531C128.5 179.145 128.605 177.791 128.816 176.47L126.841 176.155C126.613 177.584 126.5 179.043 126.5 180.531H128.5ZM128.816 176.47C129.03 175.121 129.385 173.298 129.884 170.993L127.929 170.57C127.427 172.89 127.063 174.754 126.841 176.155L128.816 176.47ZM129.879 171.013C130.351 169.031 130.701 167.349 130.925 165.973L128.95 165.652C128.737 166.963 128.399 168.594 127.933 170.55L129.879 171.013ZM129.938 166.812H130.031V164.812H129.938V166.812ZM131.027 165.719L128.214 135.766L126.223 135.953L129.036 165.906L131.027 165.719ZM127.463 134.89L122.26 133.577L121.771 135.517L126.974 136.829L127.463 134.89ZM121.026 134.402L119.104 147.574L121.083 147.863L123.005 134.691L121.026 134.402ZM119.769 146.773C117.854 147.431 116.074 147.75 114.422 147.75V149.75C116.332 149.75 118.333 149.381 120.419 148.664L119.769 146.773ZM114.422 147.75C112.779 147.75 111.16 147.419 109.558 146.749L108.786 148.594C110.621 149.362 112.502 149.75 114.422 149.75V147.75ZM110.122 147.36C109.48 145.405 108.912 143.194 108.418 140.726L106.457 141.118C106.963 143.649 107.551 145.939 108.222 147.984L110.122 147.36ZM108.416 140.714C107.897 138.271 107.641 135.998 107.641 133.891H105.641C105.641 136.158 105.916 138.573 106.459 141.13L108.416 140.714ZM107.641 133.891C107.641 131.355 108.051 129.485 108.778 128.193L107.035 127.213C106.074 128.921 105.641 131.177 105.641 133.891H107.641ZM108.682 128.334C110.216 126.446 112.156 124.872 114.516 123.617L113.577 121.851C111.001 123.221 108.846 124.96 107.13 127.073L108.682 128.334ZM114.52 123.615C116.93 122.32 119.193 121.589 121.314 121.386L121.123 119.395C118.682 119.629 116.163 120.461 113.573 121.854L114.52 123.615ZM120.974 121.36L141.552 126.563L142.042 124.624L121.464 119.421L120.974 121.36ZM142.101 126.546L158.413 121.343L157.805 119.438L141.493 124.641L142.101 126.546ZM157.647 121.277C158.829 121.894 159.783 122.982 160.464 124.658L162.317 123.904C161.499 121.893 160.264 120.387 158.572 119.504L157.647 121.277ZM160.47 124.671C161.192 126.376 161.562 128.303 161.562 130.469H163.562C163.562 128.072 163.152 125.874 162.311 123.891L160.47 124.671ZM161.562 130.469C161.562 132.751 161.148 134.921 160.322 136.988L162.178 137.731C163.102 135.423 163.562 132.999 163.562 130.469H161.562ZM160.319 136.995C159.53 139.011 158.45 140.441 157.117 141.366L158.258 143.009C159.988 141.809 161.283 140.02 162.181 137.724L160.319 136.995Z" fill="#B4CEAD"/>
<defs>
<filter id="filter0_i_792_3" x="0.84375" y="0.390625" width="161.719" height="197.594" filterUnits="userSpaceOnUse" color-interpolation-filters="sRGB">
<feFlood flood-opacity="0" result="BackgroundImageFix"/>
<feBlend mode="normal" in="SourceGraphic" in2="BackgroundImageFix" result="shape"/>
<feColorMatrix in="SourceAlpha" type="matrix" values="0 0 0 0 0 0 0 0 0 0 0 0 0 0 0 0 0 0 127 0" result="hardAlpha"/>
<feOffset dy="4"/>
<feGaussianBlur stdDeviation="2"/>
<feComposite in2="hardAlpha" operator="arithmetic" k2="-1" k3="1"/>
<feColorMatrix type="matrix" values="0 0 0 0 0 0 0 0 0 0 0 0 0 0 0 0 0 0 0.25 0"/>
<feBlend mode="normal" in2="shape" result="effect1_innerShadow_792_3"/>
</filter>
</defs>
</svg>
