<svg width="513" height="512" viewBox="0 0 513 512" fill="none" xmlns="http://www.w3.org/2000/svg">
<g clip-path="url(#clip0_753_12)">
<path d="M512.39 0H0.610107V511.78H512.39V0Z" fill="white"/>
<path d="M512.39 277.2V0.230469H0.610107V512H512.39V362.69C511.24 362.69 512.39 277.2 512.39 277.2Z" fill="#006FCF"/>
<path d="M449.7 248.71H488.45V158.66H446.29V171.2L438.31 158.66H401.83V174.62L395 158.66H327.75C325.47 158.66 323.19 159.81 320.92 159.81C318.64 159.81 317.49 160.95 315.22 162.08C312.94 163.23 311.79 163.23 309.52 164.36V158.66H116.87L111.17 173.48L105.47 158.66H59.8801V174.62L53.0501 158.66H16.5701L0.610107 197.42V248.71H26.8201L31.3801 236.17H40.5001L45.0601 248.71H245.66V237.31L253.64 248.71H309.49V241.86C310.63 243.01 312.91 243.01 314.04 244.14C315.19 245.29 317.46 245.29 318.6 246.42C320.88 247.56 323.15 247.56 325.43 247.56H366.5L371.05 235.03H380.17L384.73 247.56H440.58V236.16L449.7 248.71ZM512.39 362.69V278.34H198.94L190.96 289.74L182.98 278.34H91.8001V368.39H182.98L190.96 356.99L198.94 368.39H255.93V349.01H253.65C261.63 349.01 268.47 347.87 274.16 345.59V369.52H315.2V358.12L323.17 369.52H493.01C499.84 367.24 506.69 366.11 512.39 362.69Z" fill="white"/>
<path d="M493.01 341.031H462.23V353.571H491.87C504.4 353.571 512.38 345.591 512.38 334.191C512.38 322.791 505.53 317.091 494.14 317.091H480.47C477.04 317.091 474.77 314.811 474.77 311.391C474.77 307.971 477.04 305.691 480.47 305.691H506.68L512.38 293.151H481.6C469.07 293.151 461.09 301.131 461.09 311.391C461.09 322.791 467.92 328.491 479.32 328.491H493C496.42 328.491 498.7 330.771 498.7 334.191C499.84 338.751 497.57 341.031 493.01 341.031ZM437.15 341.031H406.38V353.571H436.01C448.54 353.571 456.52 345.591 456.52 334.191C456.52 322.791 449.69 317.091 438.29 317.091H424.61C421.19 317.091 418.91 314.811 418.91 311.391C418.91 307.971 421.19 305.691 424.61 305.691H450.82L456.52 293.151H425.74C413.21 293.151 405.23 301.131 405.23 311.391C405.23 322.791 412.08 328.491 423.47 328.491H437.14C440.57 328.491 442.84 330.771 442.84 334.191C444 338.751 440.58 341.031 437.15 341.031ZM397.26 304.551V292.021H349.4V352.431H397.26V339.901H363.07V327.361H396.13V314.831H363.07V303.431H397.26V304.551ZM319.76 304.551C325.46 304.551 327.74 307.981 327.74 311.401C327.74 314.821 325.46 318.231 319.76 318.231H302.66V303.411L319.76 304.551ZM302.66 330.781H309.51L327.74 352.431H344.84L324.33 329.631C334.58 327.351 340.28 320.511 340.28 311.401C340.28 300.001 332.31 292.021 319.77 292.021H287.86V352.431H301.54L302.66 330.781ZM266.18 312.531C266.18 317.091 263.91 320.511 258.21 320.511H239.97V304.551H257.07C262.77 304.551 266.18 307.981 266.18 312.531ZM226.29 292.021V352.431H239.97V331.921H258.21C270.74 331.921 279.86 323.941 279.86 311.411C279.86 300.011 271.88 290.901 259.35 290.901L226.29 292.021ZM205.78 352.431H222.88L198.95 321.651L222.88 292.021H205.78L190.96 311.401L176.14 292.021H159.04L182.97 321.651L159.04 351.291H176.14L190.96 331.911L205.78 352.431ZM154.49 304.551V292.021H106.62V352.431H154.49V339.901H120.3V327.361H153.36V314.831H120.3V303.431H154.49V304.551ZM431.46 197.421L455.4 233.901H472.5V173.481H458.82V213.371L455.4 207.671L433.74 173.481H415.51V233.901H429.19V192.861L431.46 197.421ZM372.19 196.271L376.74 183.741L381.3 196.271L387 209.951H366.5L372.19 196.271ZM396.13 233.891H410.95L384.74 173.471H366.5L340.28 233.891H355.11L360.81 221.351H390.44L396.13 233.891ZM332.3 233.891L338 221.351H334.57C324.32 221.351 318.62 214.521 318.62 204.251V203.111C318.62 192.851 324.32 186.011 334.57 186.011H349.4V173.471H333.44C315.21 173.471 304.94 186.011 304.94 203.111V204.251C304.94 222.501 315.2 233.891 332.3 233.891ZM281.01 233.891H294.68V174.621H281.01V233.891ZM251.37 186.021C257.07 186.021 259.35 189.441 259.35 192.851C259.35 196.261 257.07 199.701 251.37 199.701H234.27V184.871L251.37 186.021ZM234.27 212.231H241.12L259.35 233.891H276.45L255.94 211.091C266.19 208.811 271.89 201.961 271.89 192.851C271.89 181.451 263.92 173.471 251.38 173.471H219.47V233.891H233.15L234.27 212.231ZM209.19 186.021V173.481H161.33V233.901H209.19V221.361H175V208.831H208.06V196.291H175V184.891H209.19V186.021ZM105.48 233.891H118.01L135.11 184.871V233.891H148.79V173.471H125.99L112.31 214.511L98.6401 173.471H75.8401V233.891H89.5101V184.871L105.48 233.891ZM31.3901 196.271L35.9501 183.741L40.5001 196.271L46.2001 209.951H25.6901L31.3901 196.271ZM55.3201 233.891H70.1501L43.9301 173.471H26.8301L0.610107 233.891H15.4301L21.1301 221.351H50.7701L55.3201 233.891Z" fill="#006FCF"/>
</g>
<defs>
<clipPath id="clip0_753_12">
<rect width="512" height="512" fill="white" transform="translate(0.5)"/>
</clipPath>
</defs>
</svg>
