<?xml version="1.0" encoding="UTF-8" standalone="no"?>
<!DOCTYPE svg PUBLIC "-//W3C//DTD SVG 1.1//EN" "http://www.w3.org/Graphics/SVG/1.1/DTD/svg11.dtd">
<!-- Created with Vectornator (http://vectornator.io/) -->
<svg height="100%" stroke-miterlimit="10" style="fill-rule:nonzero;clip-rule:evenodd;stroke-linecap:round;stroke-linejoin:round;" version="1.1" viewBox="0 0 148 148" width="100%" xml:space="preserve" xmlns="http://www.w3.org/2000/svg" xmlns:xlink="http://www.w3.org/1999/xlink">
<defs/>
<g id="Cart">
<path d="M129.22 42.9106C128.161 41.0754 126.644 39.546 124.818 38.4717C122.992 37.3973 120.918 36.8147 118.799 36.7806L40.3354 36.7806L36.78 22.9268C36.4208 21.5894 35.6194 20.4131 34.5063 19.5894C33.3931 18.7657 32.0339 18.3432 30.65 18.3906L18.39 18.3906C16.7642 18.3906 15.205 19.0364 14.0554 20.186C12.9058 21.3356 12.26 22.8948 12.26 24.5206C12.26 26.1463 12.9058 27.7055 14.0554 28.8551C15.205 30.0047 16.7642 30.6506 18.39 30.6506L25.9912 30.6506L42.91 93.5444C43.2692 94.8817 44.0707 96.058 45.1838 96.8817C46.2969 97.7054 47.6561 98.128 49.04 98.0806L104.21 98.0806C105.342 98.0771 106.451 97.7603 107.414 97.1652C108.377 96.5701 109.156 95.72 109.666 94.7091L129.772 54.4963C130.644 52.6696 131.049 50.6556 130.953 48.634C130.857 46.6124 130.262 44.6461 129.22 42.9106ZM100.409 85.8206L53.6988 85.8206L43.7069 49.0406L118.799 49.0406L100.409 85.8206Z" fill="#231f20" fill-rule="nonzero" opacity="1" stroke="none"/>
<path d="M45.975 128.73C51.0533 128.73 55.17 124.613 55.17 119.535C55.17 114.457 51.0533 110.34 45.975 110.34C40.8968 110.34 36.78 114.457 36.78 119.535C36.78 124.613 40.8968 128.73 45.975 128.73Z" fill="#231f20" fill-rule="nonzero" opacity="1" stroke="none"/>
<path d="M107.275 128.73C112.353 128.73 116.47 124.613 116.47 119.535C116.47 114.457 112.353 110.34 107.275 110.34C102.197 110.34 98.0801 114.457 98.0801 119.535C98.0801 124.613 102.197 128.73 107.275 128.73Z" fill="#231f20" fill-rule="nonzero" opacity="1" stroke="none"/>
</g>
</svg>
