<?xml version="1.0" encoding="UTF-8" standalone="no"?>
<!DOCTYPE svg PUBLIC "-//W3C//DTD SVG 1.1//EN" "http://www.w3.org/Graphics/SVG/1.1/DTD/svg11.dtd">
<!-- Created with Vectornator (http://vectornator.io/) -->
<svg height="100%" stroke-miterlimit="10" style="fill-rule:nonzero;clip-rule:evenodd;stroke-linecap:round;stroke-linejoin:round;" version="1.1" viewBox="0 0 68 72" width="100%" xml:space="preserve" xmlns="http://www.w3.org/2000/svg" xmlns:xlink="http://www.w3.org/1999/xlink">
<defs/>
<g id="Hearth">
<path d="M34.0002 62.23C33.6273 62.2323 33.2577 62.1575 32.9125 62.01C32.5673 61.8626 32.2533 61.6453 31.9885 61.3706L9.97354 38.3159C7.21206 35.3975 5.66309 31.4575 5.66309 27.3516C5.66309 23.2457 7.21206 19.3056 9.97354 16.3872C12.7566 13.4847 16.5266 11.8547 20.4569 11.8547C24.3872 11.8547 28.1571 13.4847 30.9402 16.3872L34.0002 19.5876L37.0602 16.3872C39.8433 13.4847 43.6132 11.8547 47.5435 11.8547C51.4739 11.8547 55.2438 13.4847 58.0269 16.3872C60.7884 19.3056 62.3373 23.2457 62.3373 27.3516C62.3373 31.4575 60.7884 35.3975 58.0269 38.3159L36.0119 61.3706C35.7471 61.6453 35.4331 61.8626 35.0879 62.01C34.7427 62.1575 34.3731 62.2323 34.0002 62.23Z" fill="#231f20" fill-rule="nonzero" opacity="1" stroke="none"/>
</g>
</svg>
