<svg width="46" height="36" viewBox="0 0 46 36" fill="none" xmlns="http://www.w3.org/2000/svg">
<path d="M26.5074 28.4999C26.221 28.5007 25.9381 28.4512 25.6794 28.3552C25.4207 28.2591 25.1928 28.119 25.0124 27.9449L15.7549 18.9449C15.473 18.6765 15.3188 18.3399 15.3188 17.9924C15.3188 17.645 15.473 17.3083 15.7549 17.0399L25.3382 8.03993C25.6635 7.7336 26.131 7.54096 26.6378 7.50439C27.1447 7.46782 27.6493 7.59032 28.0407 7.84493C28.4321 8.09953 28.6783 8.4654 28.725 8.86204C28.7717 9.25868 28.6152 9.6536 28.2899 9.95992L19.7224 17.9999L28.0024 26.0399C28.2367 26.2601 28.3856 26.5282 28.4314 26.8125C28.4772 27.0969 28.4179 27.3855 28.2606 27.6443C28.1034 27.9031 27.8546 28.1212 27.5439 28.2728C27.2332 28.4245 26.8735 28.5033 26.5074 28.4999Z" fill="#231F20"/>
</svg>
