<svg width="41" height="41" viewBox="0 0 41 41" fill="none" xmlns="http://www.w3.org/2000/svg">
<path d="M20.5002 20.4998C21.4397 20.4998 22.2444 20.165 22.914 19.4953C23.5826 18.8268 23.9168 18.0228 23.9168 17.0832C23.9168 16.1436 23.5826 15.339 22.914 14.6693C22.2444 14.0008 21.4397 13.6665 20.5002 13.6665C19.5606 13.6665 18.7565 14.0008 18.088 14.6693C17.4183 15.339 17.0835 16.1436 17.0835 17.0832C17.0835 18.0228 17.4183 18.8268 18.088 19.4953C18.7565 20.165 19.5606 20.4998 20.5002 20.4998ZM20.5002 33.0561C23.9738 29.8672 26.5505 26.9699 28.2304 24.3641C29.9102 21.7594 30.7502 19.4464 30.7502 17.4248C30.7502 14.3214 29.7605 11.7799 27.7811 9.80055C25.8028 7.8223 23.3759 6.83317 20.5002 6.83317C17.6245 6.83317 15.1969 7.8223 13.2175 9.80055C11.2393 11.7799 10.2502 14.3214 10.2502 17.4248C10.2502 19.4464 11.0901 21.7594 12.77 24.3641C14.4498 26.9699 17.0266 29.8672 20.5002 33.0561ZM20.5002 37.5832C15.9161 33.6825 12.4926 30.0591 10.2297 26.713C7.96555 23.3681 6.8335 20.2721 6.8335 17.4248C6.8335 13.154 8.20757 9.75157 10.9557 7.21755C13.7027 4.68352 16.8842 3.4165 20.5002 3.4165C24.1161 3.4165 27.2976 4.68352 30.0446 7.21755C32.7928 9.75157 34.1668 13.154 34.1668 17.4248C34.1668 20.2721 33.0353 23.3681 30.7724 26.713C28.5083 30.0591 25.0842 33.6825 20.5002 37.5832Z" fill="black"/>
</svg>
