<svg width="1001" height="619" viewBox="0 0 1001 619" fill="none" xmlns="http://www.w3.org/2000/svg">
<path d="M635.541 66.75H365.152V552.591H635.541V66.75Z" fill="#FF5F00"/>
<path d="M382.319 309.669C382.319 210.956 428.672 123.402 499.917 66.7493C447.556 25.5473 381.461 0.654297 309.357 0.654297C138.541 0.654297 0.341797 138.853 0.341797 309.669C0.341797 480.486 138.541 618.685 309.357 618.685C381.461 618.685 447.556 593.792 499.917 552.59C428.672 496.796 382.319 408.383 382.319 309.669Z" fill="#EB001B"/>
<path d="M1000.35 309.669C1000.35 480.486 862.152 618.685 691.335 618.685C619.231 618.685 553.136 593.792 500.775 552.59C572.879 495.937 618.373 408.383 618.373 309.669C618.373 210.956 572.021 123.402 500.775 66.7493C553.136 25.5473 619.231 0.654297 691.335 0.654297C862.152 0.654297 1000.35 139.711 1000.35 309.669Z" fill="#F79E1B"/>
</svg>
