<?xml version="1.0" encoding="UTF-8" standalone="no"?>
<!DOCTYPE svg PUBLIC "-//W3C//DTD SVG 1.1//EN" "http://www.w3.org/Graphics/SVG/1.1/DTD/svg11.dtd">
<!-- Created with Vectornator (http://vectornator.io/) -->
<svg height="100%" stroke-miterlimit="10" style="fill-rule:nonzero;clip-rule:evenodd;stroke-linecap:round;stroke-linejoin:round;" version="1.1" viewBox="0 0 70 74" width="100%" xml:space="preserve" xmlns="http://www.w3.org/2000/svg" xmlns:xlink="http://www.w3.org/1999/xlink">
<defs/>
<g id="User">
<path d="M35.0002 33.5132C37.3076 33.5132 39.5632 32.7985 41.4818 31.4594C43.4004 30.1203 44.8957 28.217 45.7788 25.9902C46.6618 23.7634 46.8928 21.313 46.4427 18.9491C45.9925 16.5851 44.8814 14.4136 43.2497 12.7093C41.6181 11.005 39.5393 9.84429 37.2762 9.37406C35.0131 8.90384 32.6673 9.14517 30.5355 10.0676C28.4037 10.9899 26.5816 12.5519 25.2997 14.556C24.0177 16.5601 23.3335 18.9163 23.3335 21.3266C23.3335 24.5587 24.5627 27.6584 26.7506 29.9438C28.9385 32.2293 31.906 33.5132 35.0002 33.5132Z" fill="#231f20" fill-rule="nonzero" opacity="1" stroke="none"/>
<path d="M52.4999 63.9798C53.2735 63.9798 54.0153 63.6588 54.5623 63.0874C55.1093 62.5161 55.4166 61.7411 55.4166 60.9331C55.4166 55.2769 53.2655 49.8524 49.4367 45.8529C45.6078 41.8534 40.4148 39.6064 34.9999 39.6064C29.5851 39.6064 24.392 41.8534 20.5632 45.8529C16.7343 49.8524 14.5833 55.2769 14.5833 60.9331C14.5833 61.7411 14.8905 62.5161 15.4375 63.0874C15.9845 63.6588 16.7264 63.9798 17.4999 63.9798L52.4999 63.9798Z" fill="#231f20" fill-rule="nonzero" opacity="1" stroke="none"/>
</g>
</svg>
