<svg width="781" height="501" viewBox="0 0 781 501" fill="none" xmlns="http://www.w3.org/2000/svg">
<g clip-path="url(#clip0_753_8)">
<path d="M40.2361 0.755859H740.236C762.328 0.755859 780.236 18.6649 780.236 40.7559V460.756C780.236 482.848 762.328 500.756 740.236 500.756H40.2361C18.1451 500.756 0.236084 482.848 0.236084 460.756V40.7559C0.236084 18.6649 18.1451 0.755859 40.2361 0.755859Z" fill="#0E4595"/>
<path d="M293.436 349.487L326.797 153.727H380.157L346.772 349.487H293.436ZM539.546 157.947C528.976 153.981 512.409 149.725 491.724 149.725C438.999 149.725 401.859 176.275 401.544 214.328C401.245 242.458 428.058 258.15 448.296 267.514C469.067 277.109 476.048 283.228 475.95 291.797C475.819 304.918 459.364 310.913 444.028 310.913C422.671 310.913 411.325 307.946 393.801 300.637L386.925 297.527L379.436 341.35C391.899 346.814 414.946 351.548 438.874 351.793C494.964 351.793 531.374 325.547 531.79 284.911C531.989 262.642 517.774 245.695 486.989 231.723C468.339 222.668 456.917 216.624 457.038 207.455C457.038 199.318 466.706 190.616 487.595 190.616C505.044 190.346 517.685 194.151 527.533 198.116L532.314 200.376L539.546 157.947M676.856 153.724H635.624C622.851 153.724 613.292 157.211 607.683 169.958L528.439 349.358H584.47C584.47 349.358 593.63 325.235 595.702 319.94C601.827 319.94 656.257 320.024 664.04 320.024C665.636 326.877 670.53 349.358 670.53 349.358H720.044L676.856 153.718V153.724ZM611.438 280.134C615.85 268.855 632.698 225.411 632.698 225.411C632.382 225.933 637.077 214.077 639.772 206.727L643.377 223.606C643.377 223.606 653.596 270.335 655.731 280.134H611.438ZM248.138 153.724L195.898 287.224L190.331 260.094C180.606 228.821 150.306 194.939 116.433 177.976L164.199 349.176L220.655 349.112L304.659 153.722H248.138" fill="white"/>
<path d="M147.156 153.715H61.1151L60.4341 157.788C127.372 173.992 171.664 213.151 190.054 260.198L171.344 170.238C168.114 157.843 158.747 154.144 147.158 153.711" fill="#F2AE14"/>
</g>
<defs>
<clipPath id="clip0_753_8">
<rect width="780" height="500" fill="white" transform="translate(0.236084 0.755859)"/>
</clipPath>
</defs>
</svg>
