<?xml version="1.0" encoding="UTF-8" standalone="no"?>
<!DOCTYPE svg PUBLIC "-//W3C//DTD SVG 1.1//EN" "http://www.w3.org/Graphics/SVG/1.1/DTD/svg11.dtd">
<!-- Created with Vectornator (http://vectornator.io/) -->
<svg height="100%" stroke-miterlimit="10" style="fill-rule:nonzero;clip-rule:evenodd;stroke-linecap:round;stroke-linejoin:round;" version="1.1" viewBox="0 0 47.17 47.18" width="100%" xml:space="preserve" xmlns="http://www.w3.org/2000/svg" xmlns:xlink="http://www.w3.org/1999/xlink">
<defs/>
<clipPath id="ArtboardFrame">
<rect height="47.18" width="47.17" x="0" y="0"/>
</clipPath>
<g clip-path="url(#ArtboardFrame)" id="Capa-1">
<g opacity="1">
<path d="M47.1723 23.59C47.1723 36.6165 36.6123 47.178 23.5857 47.178C10.5577 47.178-0.00233212 36.6165-0.00233212 23.59C-0.00233212 10.5635 10.5577 0.00200057 23.5857 0.00200057C36.6123 0.00200057 47.1723 10.5635 47.1723 23.59" fill="#19ae5b" fill-rule="nonzero" opacity="1" stroke="none"/>
<path d="M18.583 32.2124L19.047 32.49C20.7537 33.5047 22.6923 34.0432 24.6563 34.0432C30.715 34.0432 35.6443 29.114 35.6443 23.0541C35.6443 16.9952 30.715 12.0671 24.6563 12.0671C18.5977 12.0671 13.6697 16.9952 13.6697 23.0541C13.6697 25.0551 14.2257 27.026 15.2763 28.7525L15.5603 29.2192L14.463 33.3165L18.583 32.2124ZM10.8403 36.9395L12.8083 29.6004C11.695 27.5911 11.1083 25.3395 11.1083 23.0541C11.1083 15.5848 17.1857 9.50614 24.6563 9.50614C32.127 9.50614 38.2057 15.5848 38.2057 23.0541C38.2057 30.526 32.127 36.6047 24.6563 36.6047C22.4137 36.6047 20.199 36.038 18.2163 34.9619L10.8403 36.9395" fill="#ffffff" fill-rule="nonzero" opacity="1" stroke="none"/>
<path d="M29.6963 24.9395C29.139 24.6061 28.4137 24.2327 27.7563 24.502C27.2523 24.7088 26.931 25.4968 26.6043 25.9004C26.4363 26.1061 26.2363 26.1395 25.979 26.0364C24.087 25.2823 22.6377 24.0192 21.5937 22.278C21.4163 22.0088 21.4483 21.7952 21.6617 21.5447C21.9763 21.1728 22.3723 20.7515 22.4577 20.2515C22.543 19.7515 22.3097 19.1645 22.1017 18.7192C21.8377 18.1515 21.5417 17.338 20.9723 17.0165C20.447 16.7192 19.7563 16.8859 19.2897 17.2671C18.483 17.9233 18.0937 18.9515 18.1057 19.9713C18.1097 20.2619 18.1443 20.5499 18.2123 20.8285C18.375 21.502 18.6857 22.1301 19.0363 22.7275C19.3003 23.178 19.587 23.614 19.895 24.0353C20.907 25.4099 22.167 26.6047 23.6243 27.4968C24.3523 27.9432 25.1377 28.3337 25.9497 28.6036C26.8603 28.9036 27.6723 29.2165 28.6563 29.0312C29.687 28.8337 30.7017 28.1979 31.111 27.2047C31.231 26.9113 31.2923 26.5832 31.2243 26.2728C31.0843 25.6312 30.2163 25.2499 29.6963 24.9395" fill="#ffffff" fill-rule="evenodd" opacity="1" stroke="none"/>
</g>
</g>
</svg>
